<svg width="108" height="80" viewBox="0 0 108 80" fill="none" xmlns="http://www.w3.org/2000/svg">
<g clip-path="url(#clip0)">
<path d="M29 27H28V38H29V27Z" fill="#0057FF"/>
<path d="M66 23H65V38H66V23Z" fill="#0057FF"/>
<path d="M32 28H31V49H32V28Z" fill="#0057FF"/>
<path d="M69 28H68V45H69V28Z" fill="#0057FF"/>
<path d="M35 15H34V47H35V15Z" fill="#0057FF"/>
<path d="M72 18H71V42H72V18Z" fill="#0057FF"/>
<path d="M38 30H37V53H38V30Z" fill="#0057FF"/>
<path d="M75 29H74V50H75V29Z" fill="#0057FF"/>
<path d="M41 24H40V44H41V24Z" fill="#0057FF"/>
<path d="M78 25H77V38H78V25Z" fill="#0057FF"/>
<path d="M28 37H0V38H28V37Z" fill="#0057FF"/>
<path d="M65 37H43V38H65V37Z" fill="#0057FF"/>
<path d="M108 37H78V38H108V37Z" fill="#0057FF"/>
<g clip-path="url(#clip1)">
<path d="M94.4387 15.2314L95.7803 14.5606M94.4387 15.2314C93.3316 13.0173 91.8748 10.9962 90.1244 9.2457L90.0104 9.1317C85.7642 4.8855 80.0051 2.5 74 2.5C68.2541 2.5 62.8883 5.3717 59.7011 10.1525L56.0801 15.584C55.0906 17.0683 52.9094 17.0683 51.9199 15.584L48.2989 10.1525C45.1117 5.3717 39.7459 2.5 34 2.5C27.9949 2.5 22.2358 4.8855 17.9896 9.1317L17.8756 9.2457C16.1252 10.9962 14.6684 13.0173 13.5613 15.2314L13.3047 15.7446C11.4603 19.4336 10.5 23.5013 10.5 27.6257V31C10.5 37.0051 12.8855 42.7642 17.1317 47.0104L20.0199 49.8986L54 79.0244L87.9801 49.8986L90.8683 47.0104C95.1145 42.7642 97.5 37.0051 97.5 31V27.6257C97.5 23.5013 96.5397 19.4336 94.6953 15.7446L94.4387 15.2314Z" stroke="#0057FF" stroke-width="3"/>
</g>
<g clip-path="url(#clip2)">
<path d="M94.4387 14.2314L95.7803 13.5606M94.4387 14.2314C93.3316 12.0173 91.8748 9.99616 90.1244 8.24573L90.0104 8.13173C85.7642 3.8855 80.0051 1.5 74 1.5C68.2541 1.5 62.8883 4.37166 59.7011 9.15255L56.0801 14.584C55.0906 16.0683 52.9094 16.0683 51.9199 14.584L48.2989 9.15255C45.1117 4.37166 39.7459 1.5 34 1.5C27.9949 1.5 22.2358 3.8855 17.9896 8.13172L17.8756 8.24574C16.1252 9.99616 14.6684 12.0173 13.5613 14.2314L13.3047 14.7446C11.4603 18.4336 10.5 22.5013 10.5 26.6257V30C10.5 36.0051 12.8855 41.7642 17.1317 46.0104L20.0199 48.8986L54 78.0244L87.9801 48.8986L90.8683 46.0104C95.1145 41.7642 97.5 36.0051 97.5 30V26.6257C97.5 22.5013 96.5397 18.4336 94.6953 14.7446L94.4387 14.2314Z" stroke="#0057FF" stroke-width="3"/>
</g>
</g>
<defs>
<clipPath id="clip0">
<rect width="108" height="80" fill="white"/>
</clipPath>
<clipPath id="clip1">
<rect width="92" height="42" fill="white" transform="translate(8 39)"/>
</clipPath>
<clipPath id="clip2">
<rect width="92" height="36" fill="white" transform="translate(8)"/>
</clipPath>
</defs>
</svg>
